# Blender v3.1.2 OBJ File: 'giant skull.blend'
# www.blender.org
mtllib giant skull jaw.mtl
o Cube.001
v -1.038890 -1.563609 0.657914
v -1.358127 -0.749799 0.402915
v -1.498482 -1.260855 -0.532372
v -1.677365 -0.710413 -0.433739
v -0.960347 -1.697102 0.656755
v -0.782545 -0.749799 0.402915
v -0.813222 -1.260855 -0.532372
v -0.699847 -0.710413 -0.433739
v -1.181996 -1.994769 -0.193573
v -1.437937 -1.084590 0.009905
v -0.682013 -1.984835 0.091697
v -0.613971 -1.084590 0.009905
v -0.485728 -2.416015 1.352774
v -0.887527 -1.817291 1.221894
v -0.301685 -1.817291 1.646192
v -0.161685 -2.416015 1.596795
v -1.294830 -0.932374 0.542554
v -1.693877 -0.834822 -0.563415
v -0.756605 -0.834822 -0.563415
v -0.919010 -0.932374 0.542554
v -0.650246 -1.371529 -0.003493
v -1.484721 -1.371529 -0.003493
v -1.206765 -1.807497 0.227523
v -0.583077 -0.827202 0.182743
v -1.388400 -0.827202 0.182743
v -0.677474 -1.896210 0.506033
v -0.876519 -2.096131 1.219345
v -0.255436 -2.096131 1.560394
v -1.316847 -1.257905 0.294299
v -0.645407 -1.257905 0.294299
v -1.592051 -0.849341 -0.168710
v -0.773207 -1.607997 -0.285915
v -1.367958 -1.607997 -0.285915
v -0.667298 -0.849341 -0.168710
v -0.678008 -1.208304 -0.285931
v -1.558261 -1.208304 -0.285931
v -0.972841 -2.180624 0.229906
v -0.986601 -1.811903 0.851851
v -0.190422 -1.811903 1.290115
v -0.504451 -2.302457 0.747775
v -0.416461 -1.984838 1.094022
v -0.981097 -1.984838 0.770117
v -0.891066 -1.610794 1.103224
v -0.315464 -1.610794 1.592132
v -0.193961 -1.605406 1.319612
v -0.990140 -1.605406 0.906079
v 0.000000 -2.096131 1.560394
v 0.000000 -2.416015 1.666139
v 0.000000 -1.811903 1.354047
v 0.000000 -1.817291 1.646192
v 0.000000 -1.984838 1.338377
v 0.000000 -2.429019 1.292663
v 0.000000 -1.605406 1.367468
v 0.000000 -1.610794 1.592132
v 1.038890 -1.563609 0.657914
v 1.358127 -0.749799 0.402915
v 1.498482 -1.260855 -0.532372
v 1.677365 -0.710413 -0.433739
v 0.960347 -1.697102 0.656755
v 0.782545 -0.749799 0.402915
v 0.813222 -1.260855 -0.532372
v 0.699847 -0.710413 -0.433739
v 1.181996 -1.994769 -0.193573
v 1.437937 -1.084590 0.009905
v 0.682013 -1.984835 0.091697
v 0.613971 -1.084590 0.009905
v 0.485728 -2.416015 1.352774
v 0.887527 -1.817291 1.221894
v 0.301685 -1.817291 1.646192
v 0.161685 -2.416015 1.596795
v 1.294830 -0.932374 0.542554
v 1.693877 -0.834822 -0.563415
v 0.756605 -0.834822 -0.563415
v 0.919010 -0.932374 0.542554
v 0.650246 -1.371529 -0.003493
v 1.484721 -1.371529 -0.003493
v 1.206765 -1.807497 0.227523
v 0.583077 -0.827202 0.182743
v 1.388400 -0.827202 0.182743
v 0.677474 -1.896210 0.506033
v 0.876519 -2.096131 1.219345
v 0.255436 -2.096131 1.560394
v 1.316847 -1.257905 0.294299
v 0.645407 -1.257905 0.294299
v 1.592051 -0.849341 -0.168710
v 0.773207 -1.607997 -0.285915
v 1.367958 -1.607997 -0.285915
v 0.667298 -0.849341 -0.168710
v 0.678008 -1.208304 -0.285931
v 1.558261 -1.208304 -0.285931
v 0.972841 -2.180624 0.229906
v 0.986601 -1.811903 0.851851
v 0.190422 -1.811903 1.290115
v 0.504451 -2.302457 0.747775
v 0.416461 -1.984838 1.094022
v 0.981097 -1.984838 0.770117
v 0.891066 -1.610794 1.103224
v 0.315464 -1.610794 1.592132
v 0.193961 -1.605406 1.319612
v 0.990140 -1.605406 0.906079
vt 0.657634 0.925932
vt 0.713575 0.935340
vt 0.714491 0.981738
vt 0.689258 0.991102
vt 0.518925 0.018809
vt 0.544941 0.028225
vt 0.507046 0.173227
vt 0.482589 0.157841
vt 0.895974 0.178730
vt 0.931350 0.112848
vt 0.975344 0.136261
vt 0.978569 0.179534
vt 0.107977 0.695584
vt 0.076702 0.664101
vt 0.169372 0.640803
vt 0.168485 0.680372
vt 0.613791 0.714171
vt 0.550315 0.773063
vt 0.578124 0.591668
vt 0.627222 0.646885
vt 0.035141 0.634599
vt 0.164800 0.602003
vt 0.024196 0.533718
vt 0.173084 0.496288
vt 0.160226 0.550082
vt 0.027566 0.583433
vt 0.379774 0.034091
vt 0.356717 0.122315
vt 0.273783 0.125051
vt 0.313579 0.046261
vt 0.833582 0.104946
vt 0.887446 0.076476
vt 0.882358 0.124817
vt 0.847378 0.156828
vt 0.687332 0.836713
vt 0.739814 0.879649
vt 0.693896 0.889654
vt 0.653310 0.877250
vt 0.631152 0.542587
vt 0.679057 0.547584
vt 0.665529 0.657839
vt 0.791873 0.373862
vt 0.862497 0.415351
vt 0.866502 0.500186
vt 0.791465 0.500186
vt 0.578814 0.527687
vt 0.575612 0.500000
vt 0.630603 0.500000
vt 0.242002 0.076798
vt 0.161438 0.149735
vt 0.030985 0.204429
vt 0.067104 0.153798
vt 0.607108 0.807668
vt 0.551023 0.849616
vt 0.783607 0.148881
vt 0.782987 0.237465
vt 0.145449 0.818546
vt 0.153251 0.794045
vt 0.841222 0.291928
vt 0.910597 0.288330
vt 0.447986 0.031234
vt 0.421420 0.132883
vt 0.599686 0.894322
vt 0.630240 0.953218
vt 0.667035 0.756301
vt 0.747340 0.822269
vt 0.479378 0.749681
vt 0.418779 0.765127
vt 0.419497 0.698694
vt 0.473960 0.698694
vt 0.763896 0.853909
vt 0.643982 0.713548
vt 0.794436 0.080343
vt 0.841923 0.029193
vt 0.872457 0.030048
vt 0.017325 0.484223
vt 0.174708 0.444657
vt 0.174708 0.842528
vt 0.120234 0.983228
vt 0.895724 0.466270
vt 0.502927 0.890888
vt 0.479667 0.882661
vt 0.533748 0.748955
vt 0.527651 0.939634
vt 0.435786 0.907432
vt 0.373637 0.767324
vt 0.529767 0.698694
vt 0.077655 0.229221
vt 0.020359 0.229221
vt 0.896287 0.500186
vt 0.677666 0.500000
vt 0.372049 0.698694
vt 0.657634 0.074068
vt 0.689258 0.008898
vt 0.714491 0.018262
vt 0.713575 0.064660
vt 0.518925 0.439632
vt 0.482589 0.300600
vt 0.507046 0.285214
vt 0.544941 0.430216
vt 0.895974 0.821642
vt 0.978569 0.820838
vt 0.975344 0.864110
vt 0.931350 0.887524
vt 0.278543 0.723756
vt 0.339051 0.738968
vt 0.339938 0.778537
vt 0.247268 0.755240
vt 0.613791 0.285829
vt 0.627222 0.353115
vt 0.578124 0.408332
vt 0.550315 0.226937
vt 0.205707 0.784741
vt 0.335366 0.817337
vt 0.194762 0.885622
vt 0.198132 0.835908
vt 0.330793 0.869259
vt 0.343650 0.923052
vt 0.379774 0.424351
vt 0.313579 0.412181
vt 0.273783 0.333391
vt 0.356717 0.336127
vt 0.833582 0.895426
vt 0.847378 0.843544
vt 0.882358 0.875555
vt 0.887446 0.923895
vt 0.687332 0.163287
vt 0.653310 0.122750
vt 0.693896 0.110346
vt 0.739814 0.120351
vt 0.665529 0.342161
vt 0.679057 0.452416
vt 0.631152 0.457412
vt 0.791873 0.626510
vt 0.862497 0.585021
vt 0.578814 0.472312
vt 0.242002 0.381643
vt 0.067104 0.304644
vt 0.030985 0.254013
vt 0.161438 0.308707
vt 0.607108 0.192332
vt 0.551023 0.150384
vt 0.783607 0.851491
vt 0.782987 0.762907
vt 0.316015 0.600794
vt 0.323817 0.625295
vt 0.841222 0.708444
vt 0.910597 0.712042
vt 0.447986 0.427208
vt 0.421420 0.325558
vt 0.599686 0.105678
vt 0.630240 0.046782
vt 0.667035 0.243699
vt 0.747340 0.177730
vt 0.479378 0.647707
vt 0.418779 0.632261
vt 0.763896 0.146091
vt 0.643982 0.286451
vt 0.794436 0.920029
vt 0.841923 0.971179
vt 0.872457 0.970324
vt 0.187891 0.935117
vt 0.345274 0.974683
vt 0.290800 0.436112
vt 0.345274 0.576812
vt 0.895724 0.534102
vt 0.479667 0.514727
vt 0.502927 0.506500
vt 0.533748 0.648432
vt 0.527651 0.457754
vt 0.435786 0.489955
vt 0.373637 0.630064
vn -0.9576 -0.1575 0.2412
vn 0.0000 0.7216 -0.6923
vn 0.7231 0.0479 0.6891
vn 0.0000 0.6075 0.7943
vn -0.7327 -0.6683 0.1284
vn 0.0000 0.9434 -0.3317
vn 0.0000 0.6047 0.7964
vn 0.2292 -0.4485 -0.8639
vn 0.9795 -0.0310 -0.1991
vn -0.9145 0.0237 0.4038
vn -0.5262 -0.1855 0.8299
vn 0.6455 0.2891 -0.7069
vn -0.1610 0.1915 0.9682
vn 0.0271 -0.9823 -0.1852
vn -0.8655 -0.3769 0.3300
vn 0.9459 -0.1458 -0.2898
vn 0.0524 0.1699 0.9841
vn 0.6594 0.1372 0.7392
vn 0.0000 -0.0727 -0.9974
vn -0.8968 -0.4237 -0.1272
vn 0.9987 -0.0506 0.0012
vn -0.8589 -0.2478 0.4482
vn -0.0020 0.9998 0.0212
vn -0.5187 -0.1704 0.8378
vn -0.9685 -0.1247 0.2154
vn 0.0000 0.5575 -0.8302
vn -0.9700 -0.0784 0.2300
vn 0.9908 -0.1322 0.0290
vn -0.9015 -0.4326 -0.0106
vn 0.8782 -0.1782 -0.4439
vn 0.9749 -0.0230 -0.2214
vn 0.0000 -0.5789 -0.8154
vn 0.0000 0.8857 0.4643
vn -0.9152 -0.0621 0.3982
vn -0.9424 -0.0409 0.3320
vn 0.9357 0.2510 -0.2479
vn 0.3136 -0.8126 -0.4913
vn -0.1143 0.8629 0.4923
vn 0.6798 0.5529 -0.4818
vn -0.8341 -0.5217 0.1793
vn -0.0146 0.9996 0.0222
vn 0.4637 0.1837 -0.8668
vn -0.9432 0.0354 0.3302
vn -0.5916 0.2899 0.7524
vn 0.2778 0.1017 -0.9552
vn -0.1520 -0.9876 -0.0386
vn 0.4394 0.2424 -0.8650
vn 0.0000 -0.2941 0.9558
vn 0.0000 0.2533 0.9674
vn 0.9576 -0.1575 0.2412
vn -0.7231 0.0479 0.6891
vn 0.7327 -0.6683 0.1284
vn -0.2292 -0.4485 -0.8639
vn -0.9795 -0.0310 -0.1991
vn 0.9145 0.0237 0.4038
vn 0.5262 -0.1855 0.8299
vn -0.6455 0.2891 -0.7069
vn 0.1610 0.1915 0.9682
vn -0.0271 -0.9823 -0.1852
vn 0.8655 -0.3769 0.3300
vn -0.9459 -0.1458 -0.2898
vn -0.0524 0.1699 0.9841
vn -0.6594 0.1372 0.7392
vn 0.8968 -0.4237 -0.1272
vn -0.9987 -0.0506 0.0012
vn 0.8589 -0.2478 0.4482
vn 0.0020 0.9998 0.0212
vn 0.5187 -0.1704 0.8378
vn 0.9685 -0.1247 0.2154
vn 0.9700 -0.0784 0.2300
vn -0.9908 -0.1322 0.0290
vn 0.9015 -0.4326 -0.0106
vn -0.8782 -0.1782 -0.4439
vn -0.9749 -0.0230 -0.2214
vn 0.9152 -0.0621 0.3982
vn 0.9424 -0.0409 0.3320
vn -0.9357 0.2510 -0.2479
vn -0.3136 -0.8126 -0.4913
vn 0.1143 0.8629 0.4923
vn -0.6798 0.5529 -0.4818
vn 0.8341 -0.5217 0.1793
vn 0.0146 0.9996 0.0222
vn -0.4637 0.1837 -0.8668
vn 0.9433 0.0354 0.3302
vn 0.5916 0.2899 0.7524
vn -0.2778 0.1017 -0.9552
vn 0.1520 -0.9876 -0.0386
vn -0.4394 0.2424 -0.8650
usemtl Material.001
s off
f 36/1/1 31/2/1 4/3/1 18/4/1
f 18/5/2 4/6/2 8/7/2 19/8/2
f 30/9/3 24/10/3 6/11/3 20/12/3
f 20/13/4 6/14/4 2/15/4 17/16/4
f 42/17/5 37/18/5 13/19/5 27/20/5
f 24/21/6 25/22/6 2/15/6 6/14/6
f 34/23/7 31/24/7 10/25/7 12/26/7
f 33/27/8 32/28/8 11/29/8 9/30/8
f 35/31/9 34/32/9 12/33/9 21/34/9
f 29/35/10 25/36/10 10/37/10 22/38/10
f 27/20/11 28/39/11 15/40/11 14/41/11
f 40/42/12 41/43/12 51/44/12 52/45/12
f 28/39/13 16/46/13 48/47/13 47/48/13
f 37/49/14 40/50/14 16/51/14 13/52/14
f 23/53/15 29/35/15 22/38/15 9/54/15
f 32/55/16 35/31/16 21/34/16 11/56/16
f 5/57/17 20/13/17 17/16/17 1/58/17
f 26/59/18 30/9/18 20/12/18 5/60/18
f 3/61/19 18/5/19 19/8/19 7/62/19
f 33/63/20 36/1/20 18/4/20 3/64/20
f 11/56/21 21/34/21 30/9/21 26/59/21
f 1/65/22 17/66/22 29/35/22 23/53/22
f 45/67/23 44/68/23 54/69/23 53/70/23
f 13/19/24 16/46/24 28/39/24 27/20/24
f 17/66/25 2/71/25 25/36/25 29/35/25
f 12/26/26 10/25/26 25/22/26 24/21/26
f 38/72/27 42/17/27 27/20/27 14/41/27
f 21/34/28 12/33/28 24/10/28 30/9/28
f 9/54/29 22/38/29 36/1/29 33/63/29
f 7/73/30 19/74/30 35/31/30 32/55/30
f 19/74/31 8/75/31 34/32/31 35/31/31
f 3/61/32 7/62/32 32/28/32 33/27/32
f 8/76/33 4/77/33 31/24/33 34/23/33
f 22/38/34 10/37/34 31/2/34 36/1/34
f 1/65/35 23/53/35 42/17/35 38/72/35
f 11/56/36 26/59/36 41/43/36 40/42/36
f 9/30/37 11/29/37 40/50/37 37/49/37
f 5/57/38 1/58/38 38/78/38 39/79/38
f 26/59/39 5/60/39 39/80/39 41/43/39
f 23/53/40 9/54/40 37/18/40 42/17/40
f 45/67/41 46/81/41 43/82/41 44/68/41
f 39/83/42 38/84/42 46/81/42 45/67/42
f 38/84/43 14/85/43 43/82/43 46/81/43
f 14/85/44 15/86/44 44/68/44 43/82/44
f 39/83/45 45/67/45 53/70/45 49/87/45
f 16/51/46 40/50/46 52/88/46 48/89/46
f 41/43/47 39/80/47 49/90/47 51/44/47
f 15/40/48 28/39/48 47/48/48 50/91/48
f 44/68/49 15/86/49 50/92/49 54/69/49
f 90/93/50 72/94/50 58/95/50 85/96/50
f 72/97/2 73/98/2 62/99/2 58/100/2
f 84/101/51 74/102/51 60/103/51 78/104/51
f 74/105/4 71/106/4 56/107/4 60/108/4
f 96/109/52 81/110/52 67/111/52 91/112/52
f 78/113/6 60/108/6 56/107/6 79/114/6
f 88/115/7 66/116/7 64/117/7 85/118/7
f 87/119/53 63/120/53 65/121/53 86/122/53
f 89/123/54 75/124/54 66/125/54 88/126/54
f 83/127/55 76/128/55 64/129/55 79/130/55
f 81/110/56 68/131/56 69/132/56 82/133/56
f 94/134/57 52/45/57 51/44/57 95/135/57
f 82/133/58 47/48/58 48/47/58 70/136/58
f 91/137/59 67/138/59 70/139/59 94/140/59
f 77/141/60 63/142/60 76/128/60 83/127/60
f 86/143/61 65/144/61 75/124/61 89/123/61
f 59/145/62 55/146/62 71/106/62 74/105/62
f 80/147/63 59/148/63 74/102/63 84/101/63
f 57/149/19 61/150/19 73/98/19 72/97/19
f 87/151/64 57/152/64 72/94/64 90/93/64
f 65/144/65 80/147/65 84/101/65 75/124/65
f 55/153/66 77/141/66 83/127/66 71/154/66
f 99/155/67 53/70/67 54/69/67 98/156/67
f 67/111/68 81/110/68 82/133/68 70/136/68
f 71/154/69 83/127/69 79/130/69 56/157/69
f 66/116/26 78/113/26 79/114/26 64/117/26
f 92/158/70 68/131/70 81/110/70 96/109/70
f 75/124/71 84/101/71 78/104/71 66/125/71
f 63/142/72 87/151/72 90/93/72 76/128/72
f 61/159/73 86/143/73 89/123/73 73/160/73
f 73/160/74 89/123/74 88/126/74 62/161/74
f 57/149/32 87/119/32 86/122/32 61/150/32
f 62/162/33 88/115/33 85/118/33 58/163/33
f 76/128/75 90/93/75 85/96/75 64/129/75
f 55/153/76 92/158/76 96/109/76 77/141/76
f 65/144/77 94/134/77 95/135/77 80/147/77
f 63/120/78 91/137/78 94/140/78 65/121/78
f 59/145/79 93/164/79 92/165/79 55/146/79
f 80/147/80 95/135/80 93/166/80 59/148/80
f 77/141/81 96/109/81 91/112/81 63/142/81
f 99/155/82 98/156/82 97/167/82 100/168/82
f 93/169/83 99/155/83 100/168/83 92/170/83
f 92/170/84 100/168/84 97/167/84 68/171/84
f 68/171/85 97/167/85 98/156/85 69/172/85
f 93/169/86 49/87/86 53/70/86 99/155/86
f 70/139/87 48/89/87 52/88/87 94/140/87
f 95/135/88 51/44/88 49/90/88 93/166/88
f 69/132/48 50/91/48 47/48/48 82/133/48
f 98/156/49 54/69/49 50/92/49 69/172/49
