# Blender v3.1.2 OBJ File: 'BasicShot.blend'
# www.blender.org
mtllib BasicShot.mtl
o Cube
v -0.275733 0.013152 -0.098458
v -0.275733 -0.013152 -0.098458
v -0.499614 0.005623 -0.658578
v -0.499614 -0.005623 -0.658578
v 0.275733 0.013152 -0.098458
v 0.275733 -0.013152 -0.098458
v 0.499614 0.005623 -0.658578
v 0.499614 -0.005623 -0.658578
v 0.000000 -0.013368 0.517259
v -0.000000 0.258527 -0.267524
v -0.000000 -0.258527 -0.267524
v 0.000000 0.013368 0.517259
v -0.275733 0.000000 -0.098458
v 0.499614 0.000000 -0.658578
v -0.499614 0.000000 -0.658578
v 0.275733 0.000000 -0.098458
v 0.000000 0.000000 0.517259
v -0.000000 0.000000 -1.118094
vt 0.750000 0.500000
vt 0.875000 0.500000
vt 0.875000 0.750000
vt 0.750000 0.750000
vt 0.500000 0.875000
vt 0.625000 0.875000
vt 0.625000 1.000000
vt 0.500000 1.000000
vt 0.500000 0.000000
vt 0.625000 0.000000
vt 0.625000 0.250000
vt 0.500000 0.250000
vt 0.250000 0.500000
vt 0.375000 0.500000
vt 0.375000 0.750000
vt 0.250000 0.750000
vt 0.500000 0.500000
vt 0.625000 0.500000
vt 0.625000 0.750000
vt 0.500000 0.750000
vt 0.500000 0.375000
vt 0.625000 0.375000
vt 0.125000 0.500000
vt 0.125000 0.750000
vt 0.375000 0.875000
vt 0.375000 0.250000
vt 0.375000 0.375000
vt 0.375000 0.000000
vt 0.375000 1.000000
vn 0.5624 0.7931 0.2338
vn 0.2535 0.9238 -0.2869
vn 0.9286 0.0000 0.3712
vn -0.5624 -0.7931 0.2338
vn -0.9286 0.0000 0.3712
vn -0.9127 0.0000 0.4087
vn 0.9127 0.0000 0.4087
vn 0.5624 -0.7931 0.2338
vn -0.2535 0.9238 -0.2869
vn -0.5624 0.7931 0.2338
vn -0.2535 -0.9238 -0.2869
vn 0.2535 -0.9238 -0.2869
usemtl Material
s off
f 12/1/1 5/2/1 7/3/1 10/4/1
f 18/5/2 10/6/2 7/7/2 14/8/2
f 14/9/3 7/10/3 5/11/3 16/12/3
f 9/13/4 2/14/4 4/15/4 11/16/4
f 13/17/5 1/18/5 3/19/5 15/20/5
f 17/21/6 12/22/6 1/18/6 13/17/6
f 16/12/7 5/11/7 12/22/7 17/21/7
f 6/23/8 9/13/8 11/16/8 8/24/8
f 15/20/9 3/19/9 10/6/9 18/5/9
f 1/18/10 12/1/10 10/4/10 3/19/10
f 4/15/11 15/20/11 18/5/11 11/25/11
f 6/26/7 16/12/7 17/21/7 9/27/7
f 9/27/6 17/21/6 13/17/6 2/14/6
f 2/14/5 13/17/5 15/20/5 4/15/5
f 8/28/3 14/9/3 16/12/3 6/26/3
f 11/25/12 18/5/12 14/8/12 8/29/12
